<svg xmlns="http://www.w3.org/2000/svg" viewBox="0 0 512 512">
  <rect width="512" height="512" rx="112" fill="#fff7ed"/>
  <circle cx="130" cy="116" r="58" fill="#ffd166"/>
  <circle cx="398" cy="142" r="42" fill="#88d8ff"/>
  <path d="M126 318c-52-18-88-56-106-112 62 2 110 34 144 92Z" fill="#ff7ab6"/>
  <path d="M122 332c30-94 104-152 222-152h70c62 0 114 40 128 102l18 84h-56l-22-72H262l-42 118h-58l40-118c-36 8-66 36-86 92H58c12-24 34-42 64-54Z" fill="#8b5cf6"/>
  <path d="M372 196c28-56 76-92 142-106 4 64-34 120-98 150Z" fill="#7c3aed"/>
  <path d="M414 158c36-28 76-40 122-32-16 38-52 62-104 72Z" fill="#f97316"/>
  <path d="M244 370h52v86h-52zM444 370h52v86h-52z" fill="#4c1d95"/>
  <circle cx="452" cy="220" r="17" fill="#fff"/>
  <circle cx="460" cy="220" r="7" fill="#2b2230"/>
  <path d="M486 264c16 12 32 12 48 0" fill="none" stroke="#2b2230" stroke-linecap="round" stroke-width="12"/>
</svg>
